<?xml version="1.0" encoding="utf-8"?>
<!-- Generator: Adobe Illustrator 21.0.2, SVG Export Plug-In . SVG Version: 6.00 Build 0)  -->
<!DOCTYPE svg PUBLIC "-//W3C//DTD SVG 1.1//EN" "http://www.w3.org/Graphics/SVG/1.1/DTD/svg11.dtd" [
	<!ENTITY ns_extend "http://ns.adobe.com/Extensibility/1.0/">
	<!ENTITY ns_ai "http://ns.adobe.com/AdobeIllustrator/10.0/">
	<!ENTITY ns_graphs "http://ns.adobe.com/Graphs/1.0/">
	<!ENTITY ns_vars "http://ns.adobe.com/Variables/1.0/">
	<!ENTITY ns_imrep "http://ns.adobe.com/ImageReplacement/1.0/">
	<!ENTITY ns_sfw "http://ns.adobe.com/SaveForWeb/1.0/">
	<!ENTITY ns_custom "http://ns.adobe.com/GenericCustomNamespace/1.0/">
	<!ENTITY ns_adobe_xpath "http://ns.adobe.com/XPath/1.0/">
]>
<svg version="1.1" id="Layer_1"  xmlns:xlink="http://www.w3.org/1999/xlink" x="0px" y="0px" viewBox="0 0 902 272"
	 enable-background="new 0 0 902 272" xml:space="preserve">
<switch>
	<g>
		<g>
			<g>
				<path fill="#FFFFFF" d="M422.6,127.8c-28-6-33.1-12.5-33.1-23.1v-0.4c0-11.2,10.5-19,25.4-19c11.8,0,21.6,3.3,31.8,10.7
					c1.5,1,3,1.5,4.9,1.5c4.5,0,8.2-3.7,8.2-8.2c0-3.8-2.5-6.1-3.6-6.9c-12.2-8.8-24.8-12.7-40.9-12.7c-24.8,0-42.8,15-42.8,35.8
					v0.4c0,17,7.4,29.9,43.4,37.7c26.6,5.6,31.7,12.3,31.7,22.6v0.4c0,11.8-11,20-26.7,20c-15.2,0-26.8-4.4-38.8-14.6
					c-1.3-1.2-3.3-2-5.3-2c-4.6,0-8.2,3.7-8.2,8.4c0,2.7,1.2,5.1,3.3,6.5c14.6,11.6,30.4,17.2,48.5,17.2c26.1,0,44.4-15.2,44.4-37
					v-0.4C464.8,145.3,452.2,134.2,422.6,127.8z"/>
				<path fill="#FFFFFF" d="M601.6,71.6h-87c-3.7,0-7.1,2.4-8,6.1c-1.3,5.2,2.7,9.9,7.8,9.9h32.9c1.2,0,2.2,1,2.2,2.2v102.6
					c0,4.6,3.4,8.6,8,8.9c5,0.3,9.2-3.6,9.2-8.6V89.8c0-1.2,1-2.2,2.2-2.2h32.9c5.1,0,9.1-4.7,7.8-9.9
					C608.7,74.1,605.3,71.6,601.6,71.6z"/>
				<path fill="#FFFFFF" d="M706.6,77.3c-1.9-4.7-5.4-7.2-10.1-7.2h-0.7c-4.7,0-8.1,2.3-10.3,7.1L634.4,189c-0.7,1.3-1,2.7-1,4.2
					c-0.1,4.3,3.6,8.1,7.9,8.1c3.7,0,6.6-2,8.1-5.7l12.2-27.2c0.4-0.8,1.2-1.3,2-1.3H728c0.9,0,1.7,0.5,2,1.3l12.2,26.8
					c1.7,3.8,4.7,6.1,8.3,6.1c4.5,0,8.2-3.7,8.2-8.2c0-1.2-0.3-2.6-1-4.2L706.6,77.3z M670.4,148.1l23.3-51.9c0.8-1.8,3.3-1.8,4.1,0
					l23.3,51.9c0.7,1.5-0.4,3.2-2.1,3.2h-46.6C670.8,151.4,669.7,149.7,670.4,148.1z"/>
				<path fill="#FFFFFF" d="M892.9,184.6h-68.1c-1.2,0-2.2-1-2.2-2.2v-36.9c0-1.2,1-2.2,2.2-2.2l59,0c3.6,0,7-2.3,7.9-5.8
					c1.4-5.1-2.7-9.9-7.6-9.9h-59.4c-1.2,0-2.2-1-2.2-2.2V89.6c0-1.2,1-2.2,2.2-2.2l67.2,0c4,0,7.6-2.9,8.1-6.8
					c0.6-4.8-3.1-8.9-7.8-8.9h-78.3c-4.6,0-8.4,3.9-8.4,8.6v111.6c0,4.7,3.8,8.6,8.4,8.6h79.2c4.7,0,8.4-4.1,7.8-8.9
					C900.4,187.5,896.9,184.6,892.9,184.6z"/>
			</g>
			<g>
				<path fill="#FFFFFF" d="M261,1H61c-5.5,0-10,4.5-10,10v132.3c0,4.1-3.4,7.5-7.5,7.5H11c-5.5,0-10,4.5-10,10v100.1
					c0,5.5,4.5,10.1,10,10.1h199.7c5.5,0,10-4.6,10-10.1V128.2c0-4.1,3.4-7.5,7.5-7.5H261c5.5,0,10-4.5,10-10V11
					C271,5.5,266.5,1,261,1z M193.2,250.6H28.5c-4.1,0-7.5-3.4-7.5-7.5v-64.9c0-4.1,3.4-7.5,7.5-7.5h14.7c4.8,0,7.8,3.7,7.8,8
					l-0.1,32c0,5,4.3,9.9,10.1,9.9l99.5,0c6.2,0,10.2-5,10.2-11.2v-81.2c0-4.1,3.3-7.4,7.4-7.4l15.1-0.1c4.1,0,7.5,3.4,7.5,7.5
					l0,114.7C200.8,247.2,197.3,250.6,193.2,250.6z M193.2,100.8h-32.3c-5.6,0-10.1,4.2-10.1,10.4v82c0,4.1-3.3,7.4-7.4,7.4H78.3
					c-4.1,0-7.4-3.3-7.4-7.4l0.1-15.1c0-4.1,3.3-7.4,7.4-7.4h32.4c5.5,0,10-4.5,10-10V78.4c0-4.1,3.4-7.5,7.5-7.5h64.9
					c4.1,0,7.5,3.4,7.5,7.5l0,14.9C200.7,97.5,197.3,100.8,193.2,100.8z M243.1,100.8h-14.9c-4.1,0-7.5-3.4-7.5-7.5V60.9
					c0-5.5-4.5-10-10-10h-100c-5.5,0-10,4.5-10,10v82.4c0,4.1-3.3,7.4-7.4,7.4H78.5c-4.1,0-7.4-3.3-7.4-7.4V28.5
					c0-4.1,3.4-7.5,7.5-7.5h164.7c4.1,0,7.4,3.3,7.4,7.4v64.9C250.6,97.5,247.3,100.8,243.1,100.8z"/>
			</g>
		</g>
	</g>
</switch>
</svg>
